<svg xmlns="http://www.w3.org/2000/svg" width="75" height="75" viewBox="0 0 75 75">
  <g id="admin--guide" transform="translate(0 0)">
    <g id="Group_21" data-name="Group 21" transform="translate(1.151 1.151)">
      <path id="Path_17" data-name="Path 17" d="M79.138,37.65l-3.709-.462a1.212,1.212,0,0,1-1.026-.911,31.3,31.3,0,0,0-3.6-8.659,1.213,1.213,0,0,1,.079-1.373l2.306-2.962a1.213,1.213,0,0,0-.1-1.6l-7.064-7.064a1.213,1.213,0,0,0-1.6-.1l-2.977,2.317a1.212,1.212,0,0,1-1.371.081,31.291,31.291,0,0,0-8.64-3.574,1.212,1.212,0,0,1-.913-1.027l-.467-3.749a1.213,1.213,0,0,0-1.2-1.063h-9.99a1.213,1.213,0,0,0-1.2,1.063l-.467,3.749a1.212,1.212,0,0,1-.913,1.027,31.3,31.3,0,0,0-8.64,3.574,1.212,1.212,0,0,1-1.371-.081l-2.977-2.317a1.213,1.213,0,0,0-1.6.1l-7.064,7.064a1.213,1.213,0,0,0-.1,1.6l2.306,2.962a1.213,1.213,0,0,1,.079,1.373,31.3,31.3,0,0,0-3.6,8.659,1.212,1.212,0,0,1-1.026.911l-3.709.462a1.213,1.213,0,0,0-1.063,1.2v9.99a1.213,1.213,0,0,0,1.063,1.2l3.684.459a1.212,1.212,0,0,1,1.027.915,31.291,31.291,0,0,0,3.593,8.7,1.212,1.212,0,0,1-.081,1.371l-2.271,2.918a1.213,1.213,0,0,0,.1,1.6l7.064,7.064a1.213,1.213,0,0,0,1.6.1l2.9-2.26a1.212,1.212,0,0,1,1.373-.079,31.3,31.3,0,0,0,8.724,3.62,1.212,1.212,0,0,1,.913,1.027l.454,3.644a1.213,1.213,0,0,0,1.2,1.063h9.99a1.213,1.213,0,0,0,1.2-1.063l.454-3.644a1.212,1.212,0,0,1,.913-1.027,31.292,31.292,0,0,0,8.724-3.62,1.212,1.212,0,0,1,1.373.079l2.9,2.26a1.213,1.213,0,0,0,1.6-.1l7.064-7.064a1.213,1.213,0,0,0,.1-1.6L70.915,61.5a1.212,1.212,0,0,1-.081-1.371,31.291,31.291,0,0,0,3.593-8.7,1.212,1.212,0,0,1,1.027-.915l3.684-.459a1.213,1.213,0,0,0,1.063-1.2v-9.99a1.213,1.213,0,0,0-1.063-1.2Z" transform="translate(-7.503 -7.5)" fill="#edf6ff"/>
      <g id="Group_20" data-name="Group 20" transform="translate(13.47 13.489)">
        <g id="Group_17" data-name="Group 17">
          <circle id="Ellipse_1" data-name="Ellipse 1" cx="22.879" cy="22.879" r="22.879" fill="#c9dbfd"/>
        </g>
        <path id="Path_18" data-name="Path 18" d="M246.265,107.038q-.891,0-1.765.067a22.88,22.88,0,0,1,0,45.624q.873.067,1.765.067a22.879,22.879,0,1,0,0-45.758Z" transform="translate(-223.386 -107.038)" fill="#aecafc"/>
        <g id="Group_19" data-name="Group 19" transform="translate(10.168 5.084)">
          <path id="Path_19" data-name="Path 19" d="M190.961,272.7l-5.206.767-4.962-.767a7.626,7.626,0,0,0-7.626,7.626v8.857a22.887,22.887,0,0,0,25.421,0v-8.857A7.626,7.626,0,0,0,190.961,272.7Z" transform="translate(-173.166 -252.368)" fill="#817d84"/>
          <path id="Path_20" data-name="Path 20" d="M269.685,272.7H266.16a7.626,7.626,0,0,1,7.626,7.626v10.79a22.827,22.827,0,0,0,3.525-1.933v-8.857A7.626,7.626,0,0,0,269.685,272.7Z" transform="translate(-251.89 -252.368)" fill="#756e79"/>
          <g id="Group_18" data-name="Group 18" transform="translate(3.813)">
            <path id="Path_21" data-name="Path 21" d="M233.034,318.2l-3.994,6.657a1.271,1.271,0,0,1-2.18,0l-3.994-6.657V315.44h10.168Z" transform="translate(-219.053 -288.546)" fill="#d8e2f3"/>
            <path id="Path_22" data-name="Path 22" d="M221.892,272.7l1.981,7.922a1.271,1.271,0,0,1-1.635,1.514l-5.43-1.81-5.43,1.81a1.271,1.271,0,0,1-1.635-1.514l1.981-7.922Z" transform="translate(-207.91 -252.368)" fill="#edf6ff"/>
            <path id="Path_23" data-name="Path 23" d="M245.075,251.205h3.11v6.6h-3.11Z" transform="translate(-237.854 -234.167)" fill="#f2cdbe"/>
            <path id="Path_24" data-name="Path 24" d="M221.553,171.274v7.938a7.626,7.626,0,0,1-7.757,7.625,7.708,7.708,0,0,1-7.5-7.751v-7.812Z" transform="translate(-205.029 -166.502)" fill="#f6e2c1"/>
            <path id="Path_25" data-name="Path 25" d="M250.416,171.274v7.938a7.629,7.629,0,0,1-5.852,7.418,7.487,7.487,0,0,0,1.624.207,7.626,7.626,0,0,0,7.757-7.625v-7.938Z" transform="translate(-237.422 -166.502)" fill="#f2d0ac"/>
            <path id="Path_26" data-name="Path 26" d="M222.867,272.7l5.084,7.626,5.084-7.626Z" transform="translate(-219.054 -252.368)" fill="#d8e2f3"/>
            <path id="Path_27" data-name="Path 27" d="M215.812,146.528v-1.271a5.084,5.084,0,0,0-5.084-5.084H203.1a5.084,5.084,0,0,0-5.084,5.084v1.271a1.271,1.271,0,0,0,1.271,1.271h15.253A1.271,1.271,0,0,0,215.812,146.528Z" transform="translate(-198.017 -140.173)" fill="#817d84"/>
            <path id="Path_28" data-name="Path 28" d="M261.4,140.172h-3.526a5.084,5.084,0,0,1,5.084,5.084v1.271a1.271,1.271,0,0,1-1.271,1.271h3.526a1.271,1.271,0,0,0,1.271-1.271v-1.271A5.084,5.084,0,0,0,261.4,140.172Z" transform="translate(-248.687 -140.172)" fill="#756e79"/>
          </g>
        </g>
      </g>
      <path id="Path_29" data-name="Path 29" d="M405.995,76.837,402.1,76.38a1.248,1.248,0,0,1-1.076-.9,30,30,0,0,0-3.778-8.562,1.143,1.143,0,0,1,.083-1.358l2.419-2.929a1.149,1.149,0,0,0-.1-1.585l-7.411-6.985a1.33,1.33,0,0,0-1.682-.1l-1.1.805,6.661,6.278a1.149,1.149,0,0,1,.1,1.585L393.8,65.559a1.143,1.143,0,0,0-.083,1.358,30,30,0,0,1,3.778,8.562,1.248,1.248,0,0,0,1.076.9l3.891.457a1.227,1.227,0,0,1,1.115,1.19v9.878a1.227,1.227,0,0,1-1.115,1.19l-3.864.454a1.248,1.248,0,0,0-1.077.9,29.984,29.984,0,0,1-3.769,8.607,1.143,1.143,0,0,0,.085,1.356l2.383,2.886a1.149,1.149,0,0,1-.1,1.585l-6.661,6.278,1.1.805a1.331,1.331,0,0,0,1.682-.1l7.411-6.985a1.149,1.149,0,0,0,.1-1.585l-2.383-2.886a1.143,1.143,0,0,1-.085-1.356,29.986,29.986,0,0,0,3.769-8.607,1.248,1.248,0,0,1,1.077-.9l3.864-.454a1.227,1.227,0,0,0,1.115-1.19V78.028A1.227,1.227,0,0,0,405.995,76.837Z" transform="translate(-334.412 -46.618)" fill="#d8e2f3"/>
    </g>
    <g id="Group_22" data-name="Group 22" transform="translate(0 0)">
      <path id="Path_30" data-name="Path 30" d="M121.472,144.1a22.279,22.279,0,1,0-22.28-22.279A22.3,22.3,0,0,0,121.472,144.1Zm-10.72-5.227v-7.624a6.015,6.015,0,0,1,4.6-5.838l-1.463,5.853a2.245,2.245,0,0,0,2.177,2.789c.062,0,.123,0,.185-.008l3.3,5.5a2.244,2.244,0,0,0,3.849,0l3.3-5.5c.062.005.124.008.185.008a2.244,2.244,0,0,0,2.177-2.789l-1.463-5.853a6.015,6.015,0,0,1,4.6,5.838v7.624a20.105,20.105,0,0,1-21.44,0Zm3.536-27.659v-1.179a3.653,3.653,0,0,1,3.649-3.649h7.071a3.653,3.653,0,0,1,3.649,3.649v1.179a.113.113,0,0,1-.113.113H114.4A.113.113,0,0,1,114.287,111.211Zm1.179,2.244h12.011V117.1a6.006,6.006,0,0,1-6.109,6,6.092,6.092,0,0,1-5.9-6.121Zm11.068,18.356-3.4-1.134,2.6-3.906,1.252,5.009a.113.113,0,0,1-.145.135l-.3-.1Zm-10.131,0-.3.1a.113.113,0,0,1-.145-.135l1.252-5.009,2.6,3.906-3.4,1.135Zm5.069-2.487-2.723-4.085h5.446Zm0,3.044,3.117,1.039-3.02,5.034a.113.113,0,0,1-.194,0l-3.02-5.034Zm0-30.7a20.14,20.14,0,0,1,12.851,35.654v-6.077a8.147,8.147,0,0,0-7.4-8.1c.086-.078.172-.157.255-.239a8.077,8.077,0,0,0,2.432-5.8v-3.918a2.246,2.246,0,0,0,1.179-1.975v-1.179a5.786,5.786,0,0,0-5.78-5.78h-7.071a5.786,5.786,0,0,0-5.78,5.78v1.179a2.246,2.246,0,0,0,1.179,1.975v3.8a8.3,8.3,0,0,0,2.737,6.153,8.146,8.146,0,0,0-7.451,8.106v6.077a20.14,20.14,0,0,1,12.851-35.654Z" transform="translate(-83.971 -84.265)"/>
      <path id="Path_31" data-name="Path 31" d="M74.028,75.906a1.081,1.081,0,0,0-1.523.125,27.371,27.371,0,1,0,3.181-3.181,1.08,1.08,0,0,0,1.4,1.648,25.21,25.21,0,1,1-2.931,2.931A1.081,1.081,0,0,0,74.028,75.906Z" transform="translate(-55.884 -56.176)"/>
      <path id="Path_32" data-name="Path 32" d="M72.973,30.2l-3.715-.463a.115.115,0,0,1-.1-.087,32.422,32.422,0,0,0-3.732-8.976.116.116,0,0,1,.006-.132l2.309-2.966a2.317,2.317,0,0,0-.19-3.057L60.48,7.447a2.317,2.317,0,0,0-3.057-.19l-2.981,2.32a.115.115,0,0,1-.131.007,32.419,32.419,0,0,0-8.956-3.7.115.115,0,0,1-.088-.1L44.8,2.028A2.317,2.317,0,0,0,42.5,0h-10a2.317,2.317,0,0,0-2.3,2.027l-.468,3.754a.115.115,0,0,1-.088.1,32.419,32.419,0,0,0-8.956,3.7.116.116,0,0,1-.131-.007l-2.981-2.32a2.317,2.317,0,0,0-3.057.19L7.446,14.521a2.317,2.317,0,0,0-.19,3.057l2.309,2.966a.115.115,0,0,1,.007.132,32.421,32.421,0,0,0-3.733,8.976.115.115,0,0,1-.1.087L2.027,30.2A2.317,2.317,0,0,0,0,32.5v10a2.317,2.317,0,0,0,2.027,2.3l3.689.46a.115.115,0,0,1,.1.088,32.421,32.421,0,0,0,3.724,9.023.115.115,0,0,1-.007.131L7.257,57.422a2.317,2.317,0,0,0,.19,3.057l7.074,7.074a2.317,2.317,0,0,0,3.057.19l2.908-2.263a.115.115,0,0,1,.131-.007,32.421,32.421,0,0,0,9.043,3.752.114.114,0,0,1,.087.1l.455,3.65A2.317,2.317,0,0,0,32.5,75h10a2.317,2.317,0,0,0,2.3-2.027l.455-3.65a.115.115,0,0,1,.087-.1c.939-.232,1.877-.508,2.789-.822a1.1,1.1,0,0,0-.715-2.078c-.85.293-1.725.551-2.6.767a2.326,2.326,0,0,0-1.742,1.959l-.455,3.65a.117.117,0,0,1-.116.1h-10a.117.117,0,0,1-.116-.1l-.455-3.65a2.326,2.326,0,0,0-1.742-1.959,30.222,30.222,0,0,1-8.43-3.5,2.326,2.326,0,0,0-2.619.152L16.228,66.01a.116.116,0,0,1-.154-.01L9,58.926a.117.117,0,0,1-.01-.154l2.275-2.922a2.327,2.327,0,0,0,.155-2.615,30.22,30.22,0,0,1-3.472-8.412,2.325,2.325,0,0,0-1.96-1.745L2.3,42.618a.117.117,0,0,1-.1-.116v-10a.117.117,0,0,1,.1-.116l3.715-.463a2.327,2.327,0,0,0,1.958-1.738,30.222,30.222,0,0,1,3.48-8.368,2.326,2.326,0,0,0-.152-2.619L8.99,16.228A.117.117,0,0,1,9,16.075L16.074,9a.117.117,0,0,1,.154-.01l2.981,2.32a2.327,2.327,0,0,0,2.614.155,30.226,30.226,0,0,1,8.349-3.454,2.326,2.326,0,0,0,1.741-1.959L32.382,2.3a.117.117,0,0,1,.116-.1h10a.117.117,0,0,1,.116.1l.468,3.754a2.327,2.327,0,0,0,1.741,1.959,30.221,30.221,0,0,1,8.349,3.454,2.327,2.327,0,0,0,2.614-.155l2.981-2.32a.117.117,0,0,1,.154.01L66,16.075a.117.117,0,0,1,.01.154L63.7,19.2a2.327,2.327,0,0,0-.152,2.619,30.221,30.221,0,0,1,3.48,8.368,2.327,2.327,0,0,0,1.958,1.738l3.715.463a.117.117,0,0,1,.1.116v10a.117.117,0,0,1-.1.116l-3.689.46a2.325,2.325,0,0,0-1.96,1.745,30.22,30.22,0,0,1-3.472,8.412,2.327,2.327,0,0,0,.155,2.615l2.275,2.923a.117.117,0,0,1-.01.154L58.926,66a.116.116,0,0,1-.154.01l-2.908-2.263a2.327,2.327,0,0,0-2.619-.152c-.627.38-1.275.741-1.927,1.073a1.1,1.1,0,1,0,1,1.957c.7-.357,1.394-.744,2.066-1.151a.116.116,0,0,1,.131.006l2.908,2.263a2.317,2.317,0,0,0,3.057-.19l7.074-7.074a2.317,2.317,0,0,0,.19-3.057L65.469,54.5a.116.116,0,0,1-.007-.131,32.414,32.414,0,0,0,3.724-9.023.115.115,0,0,1,.1-.088l3.689-.46A2.317,2.317,0,0,0,75,42.5v-10a2.317,2.317,0,0,0-2.027-2.3Z" transform="translate(0 0)"/>
    </g>
  </g>
</svg>
