<svg xmlns="http://www.w3.org/2000/svg" width="75" height="75.215" viewBox="0 0 75 75.215">
  <g id="installer-guide" transform="translate(-175 -299)">
    <g id="Group_12" data-name="Group 12" transform="translate(176 300)">
      <g id="Group_7" data-name="Group 7" transform="translate(0 11.227)">
        <g id="Group_6" data-name="Group 6" transform="translate(22.387 34.114)">
          <path id="Path_5" data-name="Path 5" d="M191.218,345.687v-11.7H175.893v11.7a11.745,11.745,0,0,1-6.243,10.376v2.8h27.811v-2.8A11.745,11.745,0,0,1,191.218,345.687Z" transform="translate(-169.65 -333.987)" fill="#c2d0da"/>
        </g>
        <path id="Path_6" data-name="Path 6" d="M80.816,80.7a3.338,3.338,0,0,0-3.17-3.485H11.4A3.338,3.338,0,0,0,8.232,80.7v39.205l4.958,3.151H75.858l4.958-3.151Z" transform="translate(-8.232 -77.219)" fill="#ddeafb"/>
        <path id="Path_7" data-name="Path 7" d="M430.5,77.219h-9.91a3.485,3.485,0,0,1,3.485,3.485V123.06h4.46l5.451-3.151V80.7A3.485,3.485,0,0,0,430.5,77.219Z" transform="translate(-361.398 -77.219)" fill="#bed8fb"/>
        <path id="Path_8" data-name="Path 8" d="M8.232,342.315v5.427a3.338,3.338,0,0,0,3.17,3.485H77.647a3.338,3.338,0,0,0,3.17-3.485v-5.427Z" transform="translate(-8.232 -304.782)" fill="#f4f8f8"/>
        <path id="Path_9" data-name="Path 9" d="M423.892,342.315v5.427a3.485,3.485,0,0,1-3.485,3.485h9.939a3.485,3.485,0,0,0,3.485-3.485v-5.427Z" transform="translate(-361.247 -304.782)" fill="#e7ecf1"/>
        <path id="Path_10" data-name="Path 10" d="M162.012,471.759H134.377a3.2,3.2,0,0,1,0-6.285h27.635a3.2,3.2,0,0,1,0,6.285Z" transform="translate(-111.902 -410.186)" fill="#e7ecf1"/>
        <path id="Path_11" data-name="Path 11" d="M309.136,465.474h-6.753v3.142a3.142,3.142,0,0,1-3.142,3.142h9.895a3.142,3.142,0,0,0,0-6.285Z" transform="translate(-257.442 -410.186)" fill="#dae4ea"/>
      </g>
      <g id="Group_11" data-name="Group 11" transform="translate(14.334)">
        <g id="Group_10" data-name="Group 10">
          <g id="Group_9" data-name="Group 9">
            <g id="Group_8" data-name="Group 8">
              <path id="Path_12" data-name="Path 12" d="M160.044,24.98a3.156,3.156,0,0,1-2.244-5.388,3.53,3.53,0,0,0,0-4.991l-1.42-1.42a3.436,3.436,0,0,0-4.9.072,3.156,3.156,0,0,1-5.4-2.223,3.53,3.53,0,0,0-3.53-3.53h-1.895a3.53,3.53,0,0,0-3.53,3.53,3.156,3.156,0,0,1-5.388,2.232,3.53,3.53,0,0,0-4.991,0l-1.34,1.34a3.53,3.53,0,0,0,0,4.991,3.156,3.156,0,0,1-2.244,5.388,3.436,3.436,0,0,0-3.517,3.415V30.4a3.53,3.53,0,0,0,3.53,3.53,3.156,3.156,0,0,1,2.232,5.388,3.53,3.53,0,0,0,0,4.991l1.34,1.34a3.53,3.53,0,0,0,4.991,0,3.156,3.156,0,0,1,5.388,2.232,3.53,3.53,0,0,0,3.53,3.53h1.895a3.53,3.53,0,0,0,3.53-3.53,3.156,3.156,0,0,1,5.388-2.232,3.53,3.53,0,0,0,4.991,0l1.34-1.34a3.53,3.53,0,0,0,0-4.991,3.156,3.156,0,0,1,2.244-5.388,3.436,3.436,0,0,0,3.517-3.415V28.4a3.436,3.436,0,0,0-3.517-3.415ZM142.22,38.928a9.491,9.491,0,1,1,8.855-8.855A9.492,9.492,0,0,1,142.22,38.928Z" transform="translate(-119.646 -7.499)" fill="#8c9ba6"/>
            </g>
          </g>
        </g>
      </g>
      <path id="Path_13" data-name="Path 13" d="M256.792,24.98a3.156,3.156,0,0,1-2.244-5.388,3.53,3.53,0,0,0,0-4.991l-1.42-1.42a3.436,3.436,0,0,0-4.9.072,3.156,3.156,0,0,1-5.4-2.223A3.53,3.53,0,0,0,239.3,7.5H237.4a3.517,3.517,0,0,0-2.44.981,21.966,21.966,0,0,1,0,41.954,3.516,3.516,0,0,0,2.44.981H239.3a3.53,3.53,0,0,0,3.53-3.53,3.156,3.156,0,0,1,5.388-2.232,3.53,3.53,0,0,0,4.991,0l1.34-1.34a3.529,3.529,0,0,0,0-4.991,3.156,3.156,0,0,1,2.244-5.388,3.436,3.436,0,0,0,3.517-3.415V28.4a3.436,3.436,0,0,0-3.517-3.415Z" transform="translate(-203.29 -7.499)" fill="#7c8b96"/>
    </g>
    <g id="Group_15" data-name="Group 15" transform="translate(175 299)">
      <g id="Group_14" data-name="Group 14">
        <path id="Path_14" data-name="Path 14" d="M200.959,98.792a10.7,10.7,0,1,0-11.368-11.368A10.7,10.7,0,0,0,200.959,98.792ZM192,87.576a8.285,8.285,0,1,1,8.808,8.808A8.281,8.281,0,0,1,192,87.576Z" transform="translate(-162.766 -66.429)"/>
        <path id="Path_15" data-name="Path 15" d="M116.65,17.481h-.025a4.525,4.525,0,0,0-4.474,4.622v2.009a4.628,4.628,0,0,0,4.5,4.736,1.961,1.961,0,0,1,1.31,3.329,4.92,4.92,0,0,0,0,6.7l1.273,1.34a4.34,4.34,0,0,0,6.363,0,1.84,1.84,0,0,1,3.162,1.379,4.627,4.627,0,0,0,4.5,4.736h1.8a4.628,4.628,0,0,0,4.5-4.736,1.84,1.84,0,0,1,3.162-1.379,4.347,4.347,0,0,0,6.363,0l1.273-1.34a4.92,4.92,0,0,0,0-6.7,1.961,1.961,0,0,1,1.31-3.329h.025a4.525,4.525,0,0,0,4.474-4.622V22.1a4.525,4.525,0,0,0-4.474-4.622h-.025a1.961,1.961,0,0,1-1.31-3.329,4.92,4.92,0,0,0,0-6.7l-1.35-1.42a4.256,4.256,0,0,0-6.281.075,1.84,1.84,0,0,1-3.168-1.373A4.627,4.627,0,0,0,135.058,0h-1.8a4.628,4.628,0,0,0-4.5,4.736A1.84,1.84,0,0,1,125.6,6.115a4.347,4.347,0,0,0-6.363,0l-1.273,1.34a4.92,4.92,0,0,0,0,6.7,1.962,1.962,0,0,1-1.31,3.329Zm2.931-5.035a2.413,2.413,0,0,1,0-3.285l1.273-1.34a2.129,2.129,0,0,1,3.121,0,4.122,4.122,0,0,0,7.076-3.085,2.27,2.27,0,0,1,2.207-2.323h1.8a2.27,2.27,0,0,1,2.207,2.323,4.122,4.122,0,0,0,7.087,3.073,2.046,2.046,0,0,1,3.033-.069l1.35,1.42a2.413,2.413,0,0,1,0,3.285c-2.618,2.755-.754,7.468,2.947,7.448h.009a2.172,2.172,0,0,1,2.182,2.209v2.123a2.171,2.171,0,0,1-2.182,2.209h-.025c-3.692,0-5.545,4.7-2.931,7.448a2.413,2.413,0,0,1,0,3.285l-1.273,1.34a2.129,2.129,0,0,1-3.121,0,4.122,4.122,0,0,0-7.075,3.085,2.27,2.27,0,0,1-2.207,2.323h-1.8a2.27,2.27,0,0,1-2.207-2.323,4.122,4.122,0,0,0-7.076-3.085,2.129,2.129,0,0,1-3.121,0l-1.273-1.34a2.413,2.413,0,0,1,0-3.285c2.611-2.748.765-7.448-2.931-7.448a2.27,2.27,0,0,1-2.207-2.323V22.1a2.172,2.172,0,0,1,2.182-2.209h.025c3.691,0,5.545-4.7,2.931-7.448Z" transform="translate(-96.653 0)"/>
        <path id="Path_16" data-name="Path 16" d="M71.451,69.721H58.775a1.084,1.084,0,1,0,0,2.168H71.451a2.065,2.065,0,0,1,2.078,2.047v34.14H2.932V73.936a2.065,2.065,0,0,1,2.078-2.047h12.7a1.084,1.084,0,1,0,0-2.168H5.011a4.252,4.252,0,0,0-4.28,4.215v40.1a4.252,4.252,0,0,0,4.28,4.215H30.14v.216a9.448,9.448,0,0,1-3.655,7.428H22.852a3.908,3.908,0,1,0,0,7.814H53.61a3.908,3.908,0,1,0,0-7.814H49.977a9.448,9.448,0,0,1-3.655-7.428v-.216h25.13a4.252,4.252,0,0,0,4.28-4.215v-40.1a4.252,4.252,0,0,0-4.28-4.215ZM53.61,128.062a1.739,1.739,0,1,1,0,3.478H22.852a1.739,1.739,0,1,1,0-3.478Zm-6.764-2.168H29.615a11.568,11.568,0,0,0,2.726-7.428v-.216H44.12v.216A11.569,11.569,0,0,0,46.847,125.894ZM73.53,114.035a2.065,2.065,0,0,1-2.078,2.047H5.011a2.065,2.065,0,0,1-2.078-2.047v-3.792h70.6Z" transform="translate(-0.731 -58.493)"/>
      </g>
    </g>
  </g>
</svg>
