<svg xmlns="http://www.w3.org/2000/svg" width="91.674" height="34.612" viewBox="0 0 91.674 34.612">
  <g id="logo-darkmode" transform="translate(65 359)">
    <path id="Path_2126" data-name="Path 2126" d="M214.841,483.11a1.739,1.739,0,1,0-.058.46A1.78,1.78,0,0,0,214.841,483.11Z" transform="translate(-262.817 -809.254)" fill="#fff"/>
    <circle id="Ellipse_94" data-name="Ellipse 94" cx="1.045" cy="1.045" r="1.045" transform="translate(-50.766 -330.511)" fill="#fff"/>
    <path id="Path_2127" data-name="Path 2127" d="M228.674,411.964a.7.7,0,0,0-1.394.011.433.433,0,0,0,0,.051.7.7,0,0,0,1.39-.01C228.673,412,228.674,411.981,228.674,411.964Z" transform="translate(-277.699 -743.723)" fill="#fff"/>
    <path id="Path_2128" data-name="Path 2128" d="M214.527,6.439A1.742,1.742,0,0,0,211.1,6h0a1.768,1.768,0,0,0-.058.459,1.743,1.743,0,0,0,3.368.614A1.712,1.712,0,0,0,214.527,6.439Z" transform="translate(-262.522 -363.709)" fill="#fff"/>
    <circle id="Ellipse_95" data-name="Ellipse 95" cx="1.045" cy="1.045" r="1.045" transform="translate(-50.78 -354.951)" fill="#fff"/>
    <path id="Path_2129" data-name="Path 2129" d="M228.5,108.067v-.03a.046.046,0,0,0,0-.009.178.178,0,0,0,0-.019.035.035,0,0,0,0-.008v-.008a.013.013,0,0,0,0,0c0-.008,0-.017,0-.026a.039.039,0,0,0,0-.009.123.123,0,0,0,0-.021c0-.007,0-.008,0-.013s0-.018-.007-.027l-.006-.021a.17.17,0,0,0-.008-.024.033.033,0,0,0,0-.008.11.11,0,0,0-.006-.016c-.006-.016-.013-.031-.02-.046l0,0v-.005l0-.009a.2.2,0,0,0-.014-.026l0-.007a.5.5,0,0,0-.029-.047l-.015-.021h0l-.01-.013-.018-.021-.023-.026-.015-.016-.008-.008-.02-.019-.024-.02-.03-.024-.026-.018-.029-.018a.645.645,0,0,0-.059-.032l-.031-.014-.032-.013-.033-.01-.033-.009-.034-.008-.034-.006-.026,0h-.015l-.028,0h-.072l-.028,0h-.021l-.026,0-.034.007-.033.008-.033.01-.032.011-.031.013-.031.014a.643.643,0,0,0-.059.033l-.028.018-.026.018-.03.024-.024.021-.029.028-.015.016-.023.026a.227.227,0,0,0-.017.022l-.01.013h0l-.015.021c-.01.015-.02.031-.029.047l0,.007-.014.026a.1.1,0,0,0-.007.014c-.008.016-.014.033-.021.05a.432.432,0,0,0-.016.049l-.006.021c0,.009,0,.018-.007.027s0,.008,0,.013a.194.194,0,0,0,0,.021.052.052,0,0,0,0,.009c0,.008,0,.017,0,.026a.011.011,0,0,1,0,0v.008c0,.013,0,.024,0,.037s0,.02,0,.03a.62.62,0,0,0,0,.07.052.052,0,0,0,0,.01c0,.009,0,.018,0,.026s0,.017,0,.026a.02.02,0,0,0,0,.007.1.1,0,0,0,0,.012l.006.024c0,.008,0,.016.007.024a.122.122,0,0,0,.005.016.188.188,0,0,0,.007.02l0,.008.01.024,0,.007a.17.17,0,0,0,.013.026h0l.016.03a0,0,0,0,1,0,0,.179.179,0,0,0,.016.026.535.535,0,0,0,.044.063l.018.022a.472.472,0,0,0,.042.046l.024.023c.012.011.026.022.039.032l.016.013.026.017.029.018.024.014.037.018.03.013.031.013h0l.032.01.033.009.031.007h.007l.026,0,.037,0h.149l.037-.005.026,0h.007l.031-.007.033-.01.032-.011h0l.031-.013.03-.014.036-.019.024-.014.028-.018.026-.018.016-.013c.014-.01.026-.021.039-.033l.024-.023.023-.024.019-.022h0l.018-.022.026-.035a.262.262,0,0,0,.018-.029l.016-.027v0l.015-.03.012-.026,0-.007.01-.024,0-.009.007-.02a.121.121,0,0,0,0-.016c0-.008,0-.016.007-.024l.006-.024s0-.008,0-.013a.03.03,0,0,0,0,0c0-.009,0-.018,0-.028s0-.018,0-.027h0v-.008A.322.322,0,0,0,228.5,108.067Z" transform="translate(-277.541 -459.672)" fill="#fff"/>
    <path id="Path_2130" data-name="Path 2130" d="M8.5,363.445a1.74,1.74,0,1,0-.133,1.958,1.74,1.74,0,0,0,.133-1.958Z" transform="translate(-70.175 -698.214)" fill="#fff"/>
    <path id="Path_2131" data-name="Path 2131" d="M63.146,349.846a1.045,1.045,0,1,0-.373,1.43A1.045,1.045,0,0,0,63.146,349.846Z" transform="translate(-122.465 -685.825)" fill="#fff"/>
    <path id="Path_2132" data-name="Path 2132" d="M97.1,335.848a.7.7,0,0,0-.7-.338.68.68,0,0,0-.258.09.762.762,0,0,0-.089.061.7.7,0,0,0,.712,1.181.678.678,0,0,0,.082-.041.7.7,0,0,0,.249-.953Z" transform="translate(-154.808 -672.902)" fill="#fff"/>
    <path id="Path_2133" data-name="Path 2133" d="M420.507,125.427a1.739,1.739,0,1,0-.256,2.1A1.739,1.739,0,0,0,420.507,125.427Z" transform="translate(-455.277 -475.74)" fill="#fff"/>
    <path id="Path_2134" data-name="Path 2134" d="M384.956,159.535h0a1.045,1.045,0,1,0-.373,1.43A1.045,1.045,0,0,0,384.956,159.535Z" transform="translate(-423.26 -507.941)" fill="#fff"/>
    <path id="Path_2135" data-name="Path 2135" d="M360.8,183.832c0-.014,0-.027-.007-.041a.726.726,0,0,0-.04-.13.632.632,0,0,0-.031-.063c0-.007-.008-.014-.012-.021a.693.693,0,0,0-.15-.179.559.559,0,0,0-.054-.041.433.433,0,0,0-.04-.026l-.018-.01h0l-.019-.01-.02-.01a.315.315,0,0,0-.041-.018l-.007,0-.023-.008s0,0,0,0l-.031-.01-.028-.007-.009,0-.028-.006-.024,0-.018,0-.026,0-.034,0h-.089l-.024,0h0l-.016,0-.029.005-.027.006h0a.7.7,0,0,0-.106.035l-.021.009-.039.02-.023.013a.666.666,0,0,0-.109.079l-.016.015-.016.015-.035.038-.01.013-.008.009-.01.013-.016.023a.485.485,0,0,0-.029.046l-.012.02-.006.011-.008.015a.715.715,0,0,0-.053.153c0,.014-.006.029-.008.044a.631.631,0,0,0-.007.07v.02a.686.686,0,0,0,.018.178c0,.014.007.029.012.044s.006.018.009.027l0,.012a.7.7,0,0,0,.22.3l.037.027a.55.55,0,0,0,.058.036l.04.021.041.018a.606.606,0,0,0,.063.021.709.709,0,0,0,.2.027h.052l.055-.007.018,0,.024-.005.021-.005h0l.023-.007.007,0,.011,0h0l.014,0,.014-.005.042-.018.031-.016.031-.017a.66.66,0,0,0,.09-.062l.009-.008.018-.016.015-.014,0,0,.016-.016c.008-.008.016-.016.023-.026h0l.02-.023v0c.007-.008.013-.016.019-.026l.007-.01.014-.021.009-.014.008-.014a.6.6,0,0,0,.028-.054s0,0,0,0l0-.007h0a.227.227,0,0,0,.011-.026c0-.012.009-.024.013-.037s.006-.018.008-.027h0c0-.009.005-.019.007-.028s0-.019.006-.028a.018.018,0,0,1,0-.008c0-.009,0-.018,0-.027s0-.038.006-.057a.156.156,0,0,0,0-.017A.38.38,0,0,0,360.8,183.832Z" transform="translate(-401.198 -530.576)" fill="#fff"/>
    <path id="Path_2136" data-name="Path 2136" d="M7.114,127.117a1.731,1.731,0,0,0-.494-.419,1.762,1.762,0,0,0-.429-.174,1.742,1.742,0,1,0,.923.592Z" transform="translate(-69.017 -477.52)" fill="#fff"/>
    <path id="Path_2137" data-name="Path 2137" d="M61.729,160.8a1.045,1.045,0,0,0-1.425.393h0a1.045,1.045,0,1,0,1.425-.393Z" transform="translate(-121.5 -509.483)" fill="#fff"/>
    <path id="Path_2138" data-name="Path 2138" d="M96.412,185.547v-.032a.161.161,0,0,0,0-.018.09.09,0,0,0,0-.018v0a.093.093,0,0,0,0-.015.675.675,0,0,0-.02-.1l-.007-.026-.01-.029-.005-.015-.012-.029-.007-.014a.248.248,0,0,0-.011-.023l-.012-.022a.628.628,0,0,0-.049-.077l-.008-.01c-.007-.008-.014-.018-.021-.026l-.008-.009-.014-.016-.012-.013-.01-.01-.016-.015-.016-.015L96.163,185l-.008-.007,0,0-.008-.007-.007-.005a.658.658,0,0,0-.074-.048l-.012-.007-.012-.006L96,184.9l-.026-.01-.026-.01-.039-.013-.018-.005-.02-.005h0l-.027-.005-.029,0H95.8l-.026,0h-.106l-.021,0h-.012a.128.128,0,0,0-.021,0l-.024,0-.026.005-.016,0a.64.64,0,0,0-.093.031l-.04.018a.7.7,0,0,0-.074.042l-.014.01-.027.02-.024.019,0,0-.023.02-.019.018-.011.012-.016.017-.006.007a.421.421,0,0,0-.033.04l-.008.011a.4.4,0,0,0-.022.033l-.007.011v0h0l-.008.014q-.018.031-.031.063l-.011.026-.007.016-.01.028c0,.009-.007.026-.01.037s-.005.02-.007.03l-.006.031,0,.013c0,.007,0,.014,0,.021a.117.117,0,0,0,0,.015c0,.008,0,.016,0,.026a.567.567,0,0,0,0,.066.068.068,0,0,0,0,.012v.008a.018.018,0,0,0,0,.006.092.092,0,0,0,0,.018c0,.007,0,.018,0,.027a0,0,0,0,0,0,0v.007a.392.392,0,0,0,.008.04h0l0,.01a.116.116,0,0,0,0,.014l.008.028h0c0,.009.006.018.009.027l0,.012,0,.006a.038.038,0,0,0,0,.009l0,.01a.125.125,0,0,0,.007.016l0,.008h0v0l0,0,.006.012.008.016c.005.009.01.018.016.027l.008.014.009.014.014.021.01.014.016.02.008.01.005.007,0,0,0,.005h0l.024.026.016.016h0l.016.015.018.015.02.016,0,0h0l.006,0,0,0,0,0,.013.008.008.005.008.005.006,0,0,0,0,0,.021.013.013.007.013.007.007,0,.007,0,.014.007,0,0h.007l0,0,.007,0,.013.005.018.007.008,0h.008l0,0,.006,0h0l.022.007.023.006h0l.021,0,.026.005.015,0h.007l.016,0h.128l.022,0,.047-.007.028-.005h0l.028-.007.013,0,.021-.007.033-.011a.6.6,0,0,0,.072-.032l.021-.011.026-.014.008-.005.014-.008.026-.018.013-.01h0l0,0,.005,0,.008-.007.016-.013.024-.021.007-.006.021-.022.031-.035a.742.742,0,0,0,.067-.1c0-.007.008-.014.011-.021s.007-.014.01-.021l0-.007s0,0,0,0l0-.005,0-.009c0-.006.005-.012.008-.018s.012-.033.018-.049,0-.011.005-.016a.681.681,0,0,0,.02-.086.05.05,0,0,0,0-.01.018.018,0,0,0,0-.006c0-.017,0-.035.005-.051v-.022S96.412,185.551,96.412,185.547Z" transform="translate(-154.078 -532.078)" fill="#fff"/>
    <path id="Path_2139" data-name="Path 2139" d="M421.183,361.173a1.743,1.743,0,1,0,.282,2.094,1.754,1.754,0,0,0-.282-2.094Z" transform="translate(-456.161 -696.419)" fill="#fff"/>
    <path id="Path_2140" data-name="Path 2140" d="M384.961,347.946a1.045,1.045,0,1,0,.393,1.425A1.045,1.045,0,0,0,384.961,347.946Z" transform="translate(-423.624 -684.405)" fill="#fff"/>
    <path id="Path_2141" data-name="Path 2141" d="M360.663,335.01v-.05a.137.137,0,0,1,0-.017.106.106,0,0,0,0-.02l0-.024,0-.022a.687.687,0,0,0-.02-.074l-.006-.018-.014-.036-.008-.02-.01-.02a.7.7,0,0,0-.072-.117l-.013-.016-.013-.016-.033-.035-.015-.014-.015-.013-.01-.009-.02-.016-.044-.032a.462.462,0,0,0-.046-.028l-.031-.017-.032-.015-.022-.009-.021-.008-.043-.014h0l-.016,0-.023-.006-.039-.008-.03,0h0a.7.7,0,0,0-.781.718.155.155,0,0,0,0,.016.121.121,0,0,0,0,.021l0,.02a.007.007,0,0,0,0,0c0,.007,0,.014,0,.021a.254.254,0,0,0,.006.032l.006.026a0,0,0,0,0,0,0c0,.008,0,.017.007.026l.008.026c0,.008.006.017.009.026h0l.01.026.011.026c.008.017.016.033.026.049a.78.78,0,0,0,.045.069l.021.028a.3.3,0,0,0,.023.026l.022.023,0,0,.026.024.022.019.01.008.016.013.011.008.006,0,.023.015.032.02.043.023.037.016h0l.029.011h0l.027.009.04.011.03.007h0l.033.005.032,0h0l.024,0h.018a.694.694,0,0,0,.285-.053l.041-.018a.7.7,0,0,0,.116-.071l.035-.029.017-.016.016-.016.024-.026.016-.018a.687.687,0,0,0,.074-.106A.675.675,0,0,0,360.663,335.01Z" transform="translate(-401.07 -671.795)" fill="#fff"/>
    <rect id="Rectangle_690" data-name="Rectangle 690" width="0.001" height="0.001" transform="translate(-49.73 -341.668) rotate(-26.957)" fill="#fff"/>
    <g id="Group_1557" data-name="Group 1557" transform="translate(-57.018 -349.058)">
      <path id="Path_2142" data-name="Path 2142" d="M306.253,394.7l-1.154.69a.38.38,0,0,1-.531-.148l-2.188-4.1a.381.381,0,0,1,.14-.506l.76-.454a.381.381,0,0,1,.511.116l2.581,3.869a.381.381,0,0,1-.121.537Z" transform="translate(-290.836 -374.899)" fill="#fff"/>
      <path id="Path_2143" data-name="Path 2143" d="M305.591,391.192c-.026-.045-.246.036-.488.182s-.418.3-.391.345.275-.039.518-.185S305.618,391.236,305.591,391.192Z" transform="translate(-293.054 -375.884)" fill="#fff"/>
      <path id="Path_2144" data-name="Path 2144" d="M286.418,358.634a1.145,1.145,0,0,1-.808.483l-1.36-2.274.808-.483Z" transform="translate(-273.931 -343.338)" fill="#fff"/>
      <path id="Path_2145" data-name="Path 2145" d="M275.668,352.2l-1.957,1.17a.336.336,0,0,1-.46-.116l-.3-.515a6.131,6.131,0,0,0,2.551-1.486l.281.486A.337.337,0,0,1,275.668,352.2Z" transform="translate(-263.371 -338.561)" fill="#fff"/>
      <path id="Path_2146" data-name="Path 2146" d="M153.306,176.658a6.347,6.347,0,1,0-4.916,7.509A6.347,6.347,0,0,0,153.306,176.658Zm-4.949,7.354a6.186,6.186,0,1,1,3.915-2.667A6.189,6.189,0,0,1,148.357,184.012Z" transform="translate(-139.797 -170.649)" fill="#fff"/>
      <path id="Path_2147" data-name="Path 2147" d="M139.593,160.4a7.306,7.306,0,1,0-1.174,8.992A7.306,7.306,0,0,0,139.593,160.4Zm-3.02,9.2a6.347,6.347,0,1,1,2.19-8.7,6.347,6.347,0,0,1-2.19,8.7Z" transform="translate(-126.019 -156.848)" fill="#fff"/>
    </g>
    <path id="Path_2148" data-name="Path 2148" d="M166.24,241.649l1.4-2.359,1.67,5.023,1.605-3.01,1.713,1.814L174.2,241.3h1.681" transform="translate(-220.646 -582.971)" fill="none" stroke="#fff" stroke-miterlimit="10" stroke-width="0.25"/>
    <circle id="Ellipse_96" data-name="Ellipse 96" cx="0.317" cy="0.317" r="0.317" transform="translate(-53.279 -343.998)" fill="#fff" stroke="#fff" stroke-miterlimit="10" stroke-width="1"/>
    <circle id="Ellipse_97" data-name="Ellipse 97" cx="0.317" cy="0.317" r="0.317" transform="translate(-51.65 -338.975)" fill="#fff" stroke="#fff" stroke-miterlimit="10" stroke-width="1"/>
    <circle id="Ellipse_98" data-name="Ellipse 98" cx="0.317" cy="0.317" r="0.317" transform="translate(-50.022 -341.984)" fill="#fff" stroke="#fff" stroke-miterlimit="10" stroke-width="1"/>
    <circle id="Ellipse_99" data-name="Ellipse 99" cx="0.317" cy="0.317" r="0.317" transform="translate(-48.393 -340.141)" fill="#fff" stroke="#fff" stroke-miterlimit="10" stroke-width="1"/>
    <circle id="Ellipse_100" data-name="Ellipse 100" cx="0.317" cy="0.317" r="0.317" transform="translate(-46.764 -341.984)" fill="#fff" stroke="#fff" stroke-miterlimit="10" stroke-width="1"/>
    <path id="Path_2149" data-name="Path 2149" d="M549.451,116.53a1.32,1.32,0,0,1,1.32-1.32h4.18a15.982,15.982,0,0,1,2.436.136,3.58,3.58,0,0,1,1.436.568,3.531,3.531,0,0,1,1.056,1.151,3.118,3.118,0,0,1,.422,1.61,3.262,3.262,0,0,1-1.934,2.985,3.622,3.622,0,0,1,1.934,1.249,3.315,3.315,0,0,1,.676,2.075,4.091,4.091,0,0,1-.437,1.826,3.683,3.683,0,0,1-1.192,1.418,3.932,3.932,0,0,1-1.863.652q-.695.075-3.351.094H549.45V116.53Zm2.778.97v3.182h1.821q1.624,0,2.018-.047a1.837,1.837,0,0,0,1.122-.493,1.453,1.453,0,0,0,.409-1.074,1.509,1.509,0,0,0-.352-1.037,1.594,1.594,0,0,0-1.047-.483q-.414-.047-2.375-.047Zm0,5.472v3.68H554.8a12.608,12.608,0,0,0,1.905-.084,1.718,1.718,0,0,0,1.009-.549,1.693,1.693,0,0,0,.389-1.169,1.793,1.793,0,0,0-.3-1.051,1.7,1.7,0,0,0-.869-.629,9.455,9.455,0,0,0-2.464-.2Z" transform="translate(-578.831 -466.993)" fill="#fff"/>
    <path id="Path_2150" data-name="Path 2150" d="M760.62,128.981V115.22h1.458a1.32,1.32,0,0,1,1.32,1.32v12.44H760.62Z" transform="translate(-776.211 -467.003)" fill="#fff"/>
    <path id="Path_2151" data-name="Path 2151" d="M1085.708,169.761v5.257q0,3.012-1.509,4.019a5.784,5.784,0,0,1-3.35.921,6.794,6.794,0,0,1-3.184-1c-1.006-.673-1.423-1.93-1.423-3.938v-5.257H1079V175.6a1.789,1.789,0,0,0,.588,1.509,2.038,2.038,0,0,0,2.681,0,1.791,1.791,0,0,0,.588-1.509v-4.419a1.434,1.434,0,0,1,1.424-1.424h1.423Z" transform="translate(-1071.222 -517.981)" fill="#fff" fill-rule="evenodd"/>
    <g id="Group_1559" data-name="Group 1559" transform="translate(-8.186 -351.685)">
      <path id="Path_2152" data-name="Path 2152" d="M874.02,130.383V116.719h2.8v5.623H882.3v-4.115a1.509,1.509,0,0,1,1.509-1.509h1.29v13.663h-2.8v-5.916h-5.484v5.916Z" transform="translate(-874.02 -116.719)" fill="#fff"/>
    </g>
    <path id="Path_2153" data-name="Path 2153" d="M1258.334,120.61a5.013,5.013,0,0,0-2.515.579V117.1h-1.281a1.432,1.432,0,0,0-1.432,1.432v12.2h2.713V130.1a5.038,5.038,0,1,0,2.515-9.489Zm.026,7.328a2.3,2.3,0,1,1,2.1-2.109,2.3,2.3,0,0,1-2.1,2.109Z" transform="translate(-1236.537 -468.76)" fill="#fff"/>
    <g id="Group_1562" data-name="Group 1562" transform="translate(-29.778 -334.159)">
      <g id="Group_1561" data-name="Group 1561" transform="translate(0 0)">
        <g id="Group_1560" data-name="Group 1560">
          <path id="Path_2154" data-name="Path 2154" d="M544.558,387.14l.675-1.3h.507l-.949,1.746v1.106h-.468V387.6l-.946-1.761h.507Z" transform="translate(-543.376 -385.791)" fill="#fff"/>
          <path id="Path_2155" data-name="Path 2155" d="M589.583,386.608a1.561,1.561,0,0,1-.348,1.082,1.464,1.464,0,0,1-1.978,0,1.57,1.57,0,0,1-.346-1.089,1.545,1.545,0,0,1,.348-1.084,1.282,1.282,0,0,1,.993-.378,1.257,1.257,0,0,1,.983.384A1.558,1.558,0,0,1,589.583,386.608Zm-2.177,0a1.28,1.28,0,0,0,.212.8.865.865,0,0,0,1.257,0,1.618,1.618,0,0,0,0-1.6.742.742,0,0,0-.625-.271.756.756,0,0,0-.633.271,1.26,1.26,0,0,0-.214.795Z" transform="translate(-584.066 -385.139)" fill="#fff"/>
          <path id="Path_2156" data-name="Path 2156" d="M642.8,385.84v1.845a1.09,1.09,0,0,1-.136.553.9.9,0,0,1-.392.364,1.365,1.365,0,0,1-.614.128,1.144,1.144,0,0,1-.825-.281,1.015,1.015,0,0,1-.295-.773V385.84h.468v1.8a.721.721,0,0,0,.164.52.675.675,0,0,0,.5.168q.659,0,.659-.692v-1.8Z" transform="translate(-634.198 -385.792)" fill="#fff"/>
          <path id="Path_2157" data-name="Path 2157" d="M690.526,387.541v1.139h-.466v-2.851h.805a1.319,1.319,0,0,1,.817.207.742.742,0,0,1,.265.624.781.781,0,0,1-.554.759l.805,1.262h-.531l-.682-1.139h-.46Zm0-.386h.324a.743.743,0,0,0,.472-.121.44.44,0,0,0,.146-.358.387.387,0,0,0-.158-.348.862.862,0,0,0-.476-.105h-.308Z" transform="translate(-680.48 -385.781)" fill="#fff"/>
          <path id="Path_2158" data-name="Path 2158" d="M772.12,385.827h.846a1.61,1.61,0,0,1,.852.172.6.6,0,0,1,.263.542.657.657,0,0,1-.128.415.577.577,0,0,1-.37.209v.02a.735.735,0,0,1,.441.223.677.677,0,0,1,.142.451.732.732,0,0,1-.269.6,1.154,1.154,0,0,1-.746.217h-1.03v-2.851Zm.466,1.178h.45a.764.764,0,0,0,.427-.093.355.355,0,0,0,.134-.315.316.316,0,0,0-.145-.291.9.9,0,0,0-.46-.089h-.4v.788Zm0,.378v.9h.5a.725.725,0,0,0,.441-.112.414.414,0,0,0,.149-.354.377.377,0,0,0-.152-.33.809.809,0,0,0-.462-.107Z" transform="translate(-757.182 -385.779)" fill="#fff"/>
          <path id="Path_2159" data-name="Path 2159" d="M816.22,388.691V385.84h.466v2.851Z" transform="translate(-798.402 -385.792)" fill="#fff"/>
          <path id="Path_2160" data-name="Path 2160" d="M876.891,387.331a.717.717,0,0,1-.275.6,1.2,1.2,0,0,1-.759.217,1.809,1.809,0,0,1-.793-.15v-.441a2.149,2.149,0,0,0,.415.144,1.755,1.755,0,0,0,.409.053.654.654,0,0,0,.409-.105.345.345,0,0,0,.132-.283.355.355,0,0,0-.121-.271,1.816,1.816,0,0,0-.5-.263,1.32,1.32,0,0,1-.55-.361.766.766,0,0,1-.16-.488.683.683,0,0,1,.254-.563,1.052,1.052,0,0,1,.68-.2,2,2,0,0,1,.815.179l-.148.38a1.781,1.781,0,0,0-.678-.16.518.518,0,0,0-.343.1.324.324,0,0,0-.117.261.364.364,0,0,0,.047.19.468.468,0,0,0,.153.149,2.647,2.647,0,0,0,.386.185,2.122,2.122,0,0,1,.46.244.713.713,0,0,1,.214.256A.782.782,0,0,1,876.891,387.331Z" transform="translate(-853.405 -385.206)" fill="#fff"/>
          <path id="Path_2161" data-name="Path 2161" d="M916.813,388.691H915.2V385.84h1.613v.394h-1.147v.776h1.074v.39h-1.074v.9h1.147Z" transform="translate(-890.918 -385.792)" fill="#fff"/>
          <path id="Path_2162" data-name="Path 2162" d="M949.459,388.519l-.285-.793h-1.09l-.279.793h-.491l1.066-2.864h.507l1.066,2.864Zm-.408-1.194-.267-.776c-.02-.051-.046-.134-.081-.246s-.058-.194-.071-.245a4.326,4.326,0,0,1-.153.524l-.257.743h.828Z" transform="translate(-920.935 -385.62)" fill="#fff"/>
          <path id="Path_2163" data-name="Path 2163" d="M997.7,387.541v1.139h-.466v-2.851h.805a1.319,1.319,0,0,1,.817.207.741.741,0,0,1,.265.624.781.781,0,0,1-.554.759l.805,1.262h-.53l-.682-1.139h-.46Zm0-.386h.324a.743.743,0,0,0,.472-.121.439.439,0,0,0,.146-.358.388.388,0,0,0-.158-.348.863.863,0,0,0-.476-.105H997.7Z" transform="translate(-967.591 -385.781)" fill="#fff"/>
          <path id="Path_2164" data-name="Path 2164" d="M1039.241,385.591a.767.767,0,0,0-.632.285,1.494,1.494,0,0,0-.009,1.579.783.783,0,0,0,.641.269,1.682,1.682,0,0,0,.351-.036q.17-.036.353-.093v.4a2.148,2.148,0,0,1-.761.128,1.215,1.215,0,0,1-.961-.38,1.584,1.584,0,0,1-.336-1.085,1.758,1.758,0,0,1,.163-.778,1.163,1.163,0,0,1,.471-.511,1.428,1.428,0,0,1,.724-.178,1.8,1.8,0,0,1,.807.184l-.168.388a2.488,2.488,0,0,0-.305-.12A1.154,1.154,0,0,0,1039.241,385.591Z" transform="translate(-1005.594 -385.184)" fill="#fff"/>
          <path id="Path_2165" data-name="Path 2165" d="M1084.775,388.691h-.468v-1.285h-1.315v1.285h-.466V385.84h.466v1.166h1.315V385.84h.468Z" transform="translate(-1047.318 -385.792)" fill="#fff"/>
          <path id="Path_2166" data-name="Path 2166" d="M1173.046,388.691h-1.613V385.84h1.613v.394H1171.9v.776h1.074v.39H1171.9v.9h1.147Z" transform="translate(-1130.418 -385.792)" fill="#fff"/>
          <path id="Path_2167" data-name="Path 2167" d="M1211.676,388.682h-.571l-1.4-2.272h-.016l.01.128c.018.242.027.463.027.663v1.482h-.424V385.83h.565l1.4,2.26h.012c0-.03-.008-.139-.016-.327s-.012-.334-.012-.44v-1.493h.427v2.851Z" transform="translate(-1165.813 -385.783)" fill="#fff"/>
          <path id="Path_2168" data-name="Path 2168" d="M1260.07,386.55h1.048v1.432a3.019,3.019,0,0,1-.494.119,3.478,3.478,0,0,1-.511.035,1.286,1.286,0,0,1-1-.384,1.544,1.544,0,0,1-.352-1.081,1.443,1.443,0,0,1,.4-1.078,1.489,1.489,0,0,1,1.09-.389,2.124,2.124,0,0,1,.846.172l-.164.388a1.649,1.649,0,0,0-.694-.16.935.935,0,0,0-.722.287,1.109,1.109,0,0,0-.265.784,1.171,1.171,0,0,0,.239.795.866.866,0,0,0,.688.272,2.258,2.258,0,0,0,.484-.057v-.735h-.591Z" transform="translate(-1212.046 -385.197)" fill="#fff"/>
          <path id="Path_2169" data-name="Path 2169" d="M1309.06,388.691V385.84h.466v2.851Z" transform="translate(-1259.058 -385.792)" fill="#fff"/>
          <path id="Path_2170" data-name="Path 2170" d="M1333.823,388.682h-.573l-1.4-2.272h-.016l.01.128c.018.242.027.463.027.663v1.482h-.423V385.83h.566l1.4,2.26h.012c0-.03-.008-.139-.016-.327s-.012-.334-.012-.44v-1.493h.427v2.851Z" transform="translate(-1279.983 -385.783)" fill="#fff"/>
          <path id="Path_2171" data-name="Path 2171" d="M1384.7,388.691h-1.613V385.84h1.613v.394h-1.148v.776h1.074v.39h-1.074v.9h1.147Z" transform="translate(-1328.247 -385.792)" fill="#fff"/>
        </g>
      </g>
    </g>
  </g>
</svg>
