<svg width="19" height="20" viewBox="0 0 19 20" fill="none" xmlns="http://www.w3.org/2000/svg">
<g clip-path="url(#clip0)">
<path d="M12.1207 7.24609C11.875 7.24609 11.6758 7.45577 11.6758 7.71448V16.5669C11.6758 16.8255 11.875 17.0353 12.1207 17.0353C12.3665 17.0353 12.5657 16.8255 12.5657 16.5669V7.71448C12.5657 7.45577 12.3665 7.24609 12.1207 7.24609Z" fill="black"/>
<path d="M6.87026 7.24609C6.62448 7.24609 6.42529 7.45577 6.42529 7.71448V16.5669C6.42529 16.8255 6.62448 17.0353 6.87026 17.0353C7.11603 17.0353 7.31522 16.8255 7.31522 16.5669V7.71448C7.31522 7.45577 7.11603 7.24609 6.87026 7.24609Z" fill="black"/>
<path d="M3.04355 5.95419V17.4942C3.04355 18.1762 3.28116 18.8168 3.69623 19.2764C4.10938 19.7373 4.68436 19.9989 5.2861 20H13.7049C14.3069 19.9989 14.8818 19.7373 15.2948 19.2764C15.7099 18.8168 15.9475 18.1762 15.9475 17.4942V5.95419C16.7726 5.72366 17.3072 4.8846 17.1969 3.99339C17.0863 3.10236 16.3652 2.43583 15.5114 2.43565H13.2332V1.85017C13.2358 1.35782 13.0509 0.885049 12.7198 0.537238C12.3887 0.18961 11.9388 -0.00396362 11.4711 6.15416e-05H7.51996C7.05222 -0.00396362 6.60239 0.18961 6.27128 0.537238C5.94016 0.885049 5.75522 1.35782 5.75783 1.85017V2.43565H3.47965C2.62588 2.43583 1.90473 3.10236 1.79418 3.99339C1.68381 4.8846 2.21846 5.72366 3.04355 5.95419V5.95419ZM13.7049 19.0632H5.2861C4.52532 19.0632 3.93348 18.3753 3.93348 17.4942V5.99536H15.0576V17.4942C15.0576 18.3753 14.4657 19.0632 13.7049 19.0632ZM6.64776 1.85017C6.6448 1.60628 6.73588 1.37154 6.90031 1.19938C7.06456 1.02721 7.28809 0.932619 7.51996 0.936827H11.4711C11.703 0.932619 11.9265 1.02721 12.0907 1.19938C12.2552 1.37136 12.3462 1.60628 12.3433 1.85017V2.43565H6.64776V1.85017ZM3.47965 3.37242H15.5114C15.9538 3.37242 16.3123 3.74987 16.3123 4.21551C16.3123 4.68114 15.9538 5.05859 15.5114 5.05859H3.47965C3.0373 5.05859 2.67872 4.68114 2.67872 4.21551C2.67872 3.74987 3.0373 3.37242 3.47965 3.37242V3.37242Z" fill="black"/>
<path d="M9.4955 7.24609C9.24973 7.24609 9.05054 7.45577 9.05054 7.71448V16.5669C9.05054 16.8255 9.24973 17.0353 9.4955 17.0353C9.74127 17.0353 9.94046 16.8255 9.94046 16.5669V7.71448C9.94046 7.45577 9.74127 7.24609 9.4955 7.24609Z" fill="black"/>
</g>
<defs>
<clipPath id="clip0">
<rect width="19" height="20" fill="white"/>
</clipPath>
</defs>
</svg>
