<svg width="23" height="23" viewBox="0 0 23 23" fill="none" xmlns="http://www.w3.org/2000/svg">
<path d="M5.07973 15.3267C5.53215 15.0157 6.1282 15.1403 6.42958 15.5836C7.18655 16.6973 8.27002 17.523 9.56313 17.9718C12.8543 19.1142 16.4577 17.3657 17.6 14.0767C18.7416 10.7871 16.9941 7.1815 13.7049 6.03978C12.4678 5.61073 11.1526 5.57754 9.87928 5.9505C9.32634 6.09981 8.77389 6.34705 8.24005 6.68481C7.50773 7.14998 6.91055 7.75719 6.43489 8.45429L7.66747 8.09695C8.1826 7.94804 8.72181 8.24452 8.8705 8.76029C9.00443 9.22156 8.78052 9.70174 8.36212 9.90452C8.31342 9.92813 8.26206 9.94826 8.20754 9.9641L4.90286 10.9214C4.65588 10.9927 4.38971 10.9635 4.1637 10.8389C3.93799 10.7147 3.77118 10.5056 3.69962 10.2577L2.74338 6.95298C2.59316 6.4385 2.88454 5.90391 3.40651 5.74952C3.92163 5.60061 4.46106 5.89753 4.60975 6.4133L4.86145 7.28309C5.47766 6.39812 6.26238 5.63847 7.19895 5.04354C7.90085 4.59894 8.63293 4.27318 9.35381 4.07983C10.9958 3.59826 12.7206 3.64125 14.3421 4.20403C18.6436 5.69714 20.9285 10.4115 19.4358 14.7138C18.6894 16.8649 17.137 18.5116 15.2341 19.4339C13.3307 20.3564 11.0773 20.5543 8.92587 19.8075C7.23591 19.2209 5.81699 18.1382 4.82291 16.6765C4.52102 16.2323 4.6363 15.628 5.07973 15.3267V15.3267Z" fill="black"/>
</svg>
