<svg width="50" height="50" viewBox="0 0 50 50" fill="none" xmlns="http://www.w3.org/2000/svg">
<path d="M1.42016 18.6151L1.42411 18.6025L1.42761 18.5898C2.90831 13.2129 6.26455 8.3014 11.2668 4.92814C21.8446 -2.20509 36.0942 0.0496594 43.9904 9.75493L44.4231 10.2867L44.9915 9.90343L49.1324 7.11101L49.2403 19.6245L37.5664 14.9106L41.5216 12.2434L42.2126 11.7774L41.6766 11.1392C34.5926 2.70348 22.1315 0.831852 12.7869 7.13344C8.32085 10.1451 5.34866 14.4993 4.02915 19.2908L4.02566 19.3035L4.02262 19.3163C3.98125 19.4901 3.90501 19.6541 3.79817 19.7986C3.69131 19.943 3.556 20.065 3.40007 20.1569C3.24413 20.2489 3.07087 20.3089 2.89063 20.3331C2.71039 20.3573 2.52709 20.3452 2.35175 20.2976C2.17642 20.25 2.01286 20.1679 1.87074 20.0564C1.72863 19.945 1.61091 19.8065 1.52435 19.6496C1.43779 19.4926 1.38408 19.3202 1.36622 19.1426C1.34836 18.965 1.36668 18.7856 1.42016 18.6151ZM5.0085 40.0966L0.867639 42.889L0.759655 30.3755L12.4336 35.0894L8.4784 37.7566L7.78746 38.2226L8.32339 38.8608C15.4074 47.2965 27.8685 49.1681 37.2131 42.8666C41.6791 39.8549 44.6513 35.5007 45.9709 30.7092L45.9743 30.6965L45.9774 30.6837C46.0187 30.5099 46.095 30.3459 46.2018 30.2014C46.3087 30.057 46.444 29.935 46.5999 29.843C46.7559 29.7511 46.9291 29.6911 47.1094 29.6669C47.2896 29.6427 47.4729 29.6548 47.6483 29.7024C47.8236 29.75 47.9871 29.8321 48.1293 29.9436C48.2714 30.055 48.3891 30.1934 48.4757 30.3504C48.5622 30.5074 48.6159 30.6798 48.6338 30.8574C48.6516 31.035 48.6333 31.2144 48.5798 31.3849L48.5759 31.3975L48.5724 31.4102C47.0917 36.7871 43.7354 41.6986 38.7332 45.0719C28.1554 52.2051 13.9058 49.9503 6.00961 40.2451L5.57692 39.7133L5.0085 40.0966Z" fill="#FEA617" stroke="#FEA202" stroke-width="1.5"/>
</svg>
