<svg id="twitter" xmlns="http://www.w3.org/2000/svg" width="21" height="16" viewBox="0 0 21 16">
  <path id="twitter-2" data-name="twitter" d="M21,1.907a8.856,8.856,0,0,1-2.475.632A4.129,4.129,0,0,0,20.424.3a8.831,8.831,0,0,1-2.732.976A4.467,4.467,0,0,0,14.543,0,4.191,4.191,0,0,0,10.23,4.043a3.784,3.784,0,0,0,.11.919A12.531,12.531,0,0,1,1.458.735,3.857,3.857,0,0,0,.87,2.768,3.971,3.971,0,0,0,2.793,6.134,4.544,4.544,0,0,1,.845,5.628v.046A4.117,4.117,0,0,0,4.3,9.637a4.68,4.68,0,0,1-1.139.138,4.6,4.6,0,0,1-.809-.069,4.277,4.277,0,0,0,4.031,2.8,9.039,9.039,0,0,1-5.354,1.734A10.3,10.3,0,0,1,0,14.185,12.8,12.8,0,0,0,6.6,16,11.792,11.792,0,0,0,18.868,4.5c0-.172,0-.345-.012-.528A7.914,7.914,0,0,0,21,1.907Z" fill="#fff" opacity="0.6"/>
</svg>
