<svg xmlns="http://www.w3.org/2000/svg" width="75" height="75" viewBox="0 0 75 75">
  <g id="user-guide" transform="translate(-1012 -303)">
    <g id="Group_47" data-name="Group 47">
      <g id="user-guide-2" data-name="user-guide" transform="translate(1013.12 304.12)">
        <circle id="Ellipse_2" data-name="Ellipse 2" cx="36.38" cy="36.38" r="36.38" fill="#cbe2ff" opacity="0.75"/>
        <path id="Path_33" data-name="Path 33" d="M229.127,7.5a38.187,38.187,0,0,0-4.717.291C242.675,10.063,256.8,25.355,256.8,43.88S242.676,77.7,224.41,79.969a38.213,38.213,0,0,0,4.717.291c20.493,0,37.105-16.288,37.105-36.38S249.62,7.5,229.127,7.5Z" transform="translate(-193.472 -7.5)" fill="#bed8fb"/>
        <g id="Group_35" data-name="Group 35" transform="translate(10.151 10.621)">
          <g id="Group_34" data-name="Group 34">
            <g id="Group_33" data-name="Group 33">
              <path id="Path_34" data-name="Path 34" d="M184.644,82.062a3.346,3.346,0,0,0-3.253-3.431H170.182a7.7,7.7,0,0,0-7.486,7.9V95.3h26.409V86.653a3.346,3.346,0,0,0-3.253-3.431h-.11A1.13,1.13,0,0,1,184.644,82.062Z" transform="translate(-149.673 -78.631)" fill="#365e7d"/>
              <path id="Path_35" data-name="Path 35" d="M292.1,83.222h-.116a1.159,1.159,0,0,1-1.159-1.159,3.431,3.431,0,0,0-3.431-3.431h-1.3V95.3h9.434V86.654A3.431,3.431,0,0,0,292.1,83.222Z" transform="translate(-255.672 -78.632)" fill="#2b4d66"/>
              <path id="Path_36" data-name="Path 36" d="M127.94,342.974a8.224,8.224,0,0,0-5.6-7.86l-9.858-3.207-10.768-.389-10.773.389-9.858,3.207a8.224,8.224,0,0,0-5.6,7.86v2.767a35.559,35.559,0,0,0,26.165,11.605,37.6,37.6,0,0,0,4.348-.258,35.681,35.681,0,0,0,21.946-11.347v-2.767Z" transform="translate(-75.481 -295.208)" fill="#4a80aa"/>
              <path id="Path_37" data-name="Path 37" d="M256.132,374.5v-2.767a8.243,8.243,0,0,0-3.059-6.408,37.136,37.136,0,0,1-28.6,20.483,37.437,37.437,0,0,0,4.642.3,39.686,39.686,0,0,0,4.468-.258A37.012,37.012,0,0,0,256.132,374.5Z" transform="translate(-203.673 -323.968)" fill="#407093"/>
              <g id="Group_23" data-name="Group 23" transform="translate(18.668 33.739)">
                <path id="Path_38" data-name="Path 38" d="M220.187,317.126l-7.262-2.826-7.269,2.826c-1.742,8.259,4.717,21.7,6.7,25.566.166,0,.331.007.5.007.21,0,.419-.006.629-.01C215.472,338.824,221.928,325.384,220.187,317.126Z" transform="translate(-205.361 -314.3)" fill="#e4f6ff"/>
              </g>
              <path id="Path_39" data-name="Path 39" d="M227.732,399.54l-2.937,11.552,3.693,4.112c.65.014,1.3.011,1.946-.007l3.687-4.074-2.944-11.583h-3.445Z" transform="translate(-203.225 -353.073)" fill="#e28086"/>
              <path id="Path_40" data-name="Path 40" d="M245.419,492.617c.3.008.6.013.9.014.35,0,.7-.007,1.047-.016l1.871-2.067a36.826,36.826,0,0,1-4.538,1.272Z" transform="translate(-220.177 -430.491)" fill="#dd636e"/>
              <g id="Group_31" data-name="Group 31" transform="translate(12.298 9.297)">
                <g id="Group_30" data-name="Group 30" transform="translate(7.728 21.117)">
                  <g id="Group_29" data-name="Group 29">
                    <g id="Group_28" data-name="Group 28">
                      <g id="Group_27" data-name="Group 27">
                        <g id="Group_26" data-name="Group 26">
                          <g id="Group_25" data-name="Group 25">
                            <g id="Group_24" data-name="Group 24">
                              <path id="Path_41" data-name="Path 41" d="M226.852,288.854v-6.532h-12.4v6.532c0,3.425,6.2,7.167,6.2,7.167S226.852,292.279,226.852,288.854Z" transform="translate(-214.448 -282.322)" fill="#ffddce"/>
                            </g>
                          </g>
                        </g>
                      </g>
                    </g>
                  </g>
                </g>
                <path id="Path_42" data-name="Path 42" d="M190.554,147.114h-2.371a2.388,2.388,0,0,1-2.388-2.388v-1.307a2.521,2.521,0,0,0-3.312-2.393,18.67,18.67,0,0,1-11.715,0l0,0a2.521,2.521,0,0,0-3.311,2.393v1.307a2.388,2.388,0,0,1-2.388,2.388h-2.371v3.9a1.806,1.806,0,0,0,1.806,1.806.594.594,0,0,1,.591.561,11.556,11.556,0,0,0,23.065,0,.594.594,0,0,1,.591-.561,1.806,1.806,0,0,0,1.806-1.806v-3.9Z" transform="translate(-162.695 -140.896)" fill="#ffddce"/>
                <path id="Path_43" data-name="Path 43" d="M260.353,147.116a2.388,2.388,0,0,1-2.388-2.388v-1.307a2.521,2.521,0,0,0-3.312-2.393q-.676.223-1.364.392v12.9a11.553,11.553,0,0,1-5.758,9.821,11.543,11.543,0,0,0,12.794-10.75.594.594,0,0,1,.591-.561,1.806,1.806,0,0,0,1.806-1.806v-3.9h-2.371Z" transform="translate(-234.864 -140.899)" fill="#ffcbbe"/>
              </g>
              <g id="Group_32" data-name="Group 32" transform="translate(15.161 34.224)">
                <path id="Path_44" data-name="Path 44" d="M186.737,314.3l-4.864,3.952,5.1,6.307a1.69,1.69,0,0,0,2.262.086l3.836-3.2Z" transform="translate(-181.873 -314.3)" fill="#f4fbff"/>
                <path id="Path_45" data-name="Path 45" d="M262.943,314.3l-6.072,7.141,3.605,3.083a1.69,1.69,0,0,0,2.268-.066l5.064-6.206Z" transform="translate(-245.673 -314.3)" fill="#f4fbff"/>
              </g>
            </g>
            <path id="Path_46" data-name="Path 46" d="M169.1,314.3l-7.139,3.507a1.081,1.081,0,0,0-.484,1.466l1.4,2.712a1.816,1.816,0,0,1-.331,2.118l-.87.869a1.811,1.811,0,0,0-.445,1.846c1.689,5.148,9.816,13.02,12.892,15.868q.31.008.622.012C172.51,338.359,164.606,321.876,169.1,314.3Z" transform="translate(-148.807 -280.561)" fill="#365e7d"/>
            <path id="Path_47" data-name="Path 47" d="M271.951,324.1a1.816,1.816,0,0,1-.331-2.118l1.4-2.712a1.081,1.081,0,0,0-.484-1.466L265.4,314.3c4.49,7.574-3.409,24.05-5.641,28.394q.315-.005.628-.016c3.082-2.855,11.2-10.717,12.884-15.86a1.812,1.812,0,0,0-.445-1.846l-.87-.869Z" transform="translate(-233.229 -280.561)" fill="#365e7d"/>
            <path id="Path_48" data-name="Path 48" d="M235.352,362.124l-3.777,3.155,1.925,2.432h3.445l1.925-2.576Z" transform="translate(-208.993 -320.852)" fill="#dd636e"/>
          </g>
        </g>
      </g>
      <path id="Path_49" data-name="Path 49" d="M75,37.5A37.5,37.5,0,1,0,36.9,74.993c.352.016,1.118,0,1.133,0h.039A37.49,37.49,0,0,0,75,37.5ZM37.5,2.2a35.3,35.3,0,0,1,27.538,57.4,9.15,9.15,0,0,0-6.41-8.55l-7.108-2.25c-.4-.344-.3-.2-6.84-3.438V42.31a12.424,12.424,0,0,0,5.192-8.91,2.876,2.876,0,0,0,2.389-2.83V19.388A4.47,4.47,0,0,0,47.8,14.923h-.113a.038.038,0,0,1-.038-.038,4.47,4.47,0,0,0-4.465-4.465H31.58a8.856,8.856,0,0,0-8.846,8.846,1.1,1.1,0,0,0,2.2,0,6.656,6.656,0,0,1,6.649-6.649h11.6a2.27,2.27,0,0,1,2.268,2.268,2.238,2.238,0,0,0,2.236,2.235H47.8a2.27,2.27,0,0,1,2.268,2.268V25.64H48.837A1.245,1.245,0,0,1,47.593,24.4V23.114A3.569,3.569,0,0,0,42.9,19.723a17.335,17.335,0,0,1-10.807,0A3.569,3.569,0,0,0,27.4,23.114V24.4a1.245,1.245,0,0,1-1.244,1.244H24.931v-1.3a1.1,1.1,0,1,0-2.2,0v6.226A2.876,2.876,0,0,0,25.123,33.4a12.424,12.424,0,0,0,5.191,8.91v3.046c-6.53,3.236-6.444,3.1-6.839,3.438l-7.1,2.249a9.15,9.15,0,0,0-6.41,8.55A35.3,35.3,0,0,1,37.5,2.2ZM24.9,57.287l.854-.852a2.87,2.87,0,0,0,.525-3.358L24.928,50.45l4.439-2.181a18.317,18.317,0,0,0-.23,6.183v0c.568,5.075,2.64,10.83,4.71,15.5-3.409-3.431-7.965-8.477-9.112-11.975a.675.675,0,0,1,.168-.691Zm.027-29.45h1.227A3.445,3.445,0,0,0,29.6,24.4V23.114a1.373,1.373,0,0,1,1.81-1.3,19.545,19.545,0,0,0,12.182,0,1.373,1.373,0,0,1,1.805,1.3V24.4a3.445,3.445,0,0,0,3.441,3.441h1.227v2.732a.674.674,0,0,1-.674.674,1.685,1.685,0,0,0-1.676,1.58,10.238,10.238,0,0,1-20.434,0,1.685,1.685,0,0,0-1.676-1.58.674.674,0,0,1-.674-.674V27.837ZM37.5,72.552c-.713-1.43-1.676-3.467-2.639-5.831l1.8-7.1h1.671l1.8,7.093C39.174,69.087,38.21,71.126,37.5,72.552ZM36.055,52.928,33.16,55.346a.557.557,0,0,1-.712,0l-1.161-1.436a14.642,14.642,0,0,1,.428-5.878ZM32.8,57.675a2.748,2.748,0,0,0,.831-.131l.979,1.238-1.106,4.352a51.372,51.372,0,0,1-1.625-5.62A2.749,2.749,0,0,0,32.8,57.675Zm5.838-.248h-2.3l-.894-1.13,2.172-1.814,1.964,1.68Zm3.24-2.193-2.7-2.312L43.3,48.076a14.652,14.652,0,0,1,.42,5.793l-1.123,1.376a.557.557,0,0,1-.714-.011ZM37.5,44.605a12.358,12.358,0,0,0,4.986-1.048v2.081L37.61,51.37l-5.1-5.747V43.557A12.356,12.356,0,0,0,37.5,44.605Zm4,18.525-1.11-4.367,1-1.335a2.694,2.694,0,0,0,1.756-.013A51,51,0,0,1,41.494,63.13ZM12.155,62.072V59.8a6.964,6.964,0,0,1,4.88-6.664l5.857-1.854c.059.137,0,0,1.438,2.8a.68.68,0,0,1-.124.8l-.854.852a2.861,2.861,0,0,0-.7,2.931c1.4,4.275,6.919,10.194,10.705,13.9a35.031,35.031,0,0,1-21.2-10.49Zm29.489,10.49a83.445,83.445,0,0,0,6.739-7.339,1.1,1.1,0,1,0-1.72-1.368,76.45,76.45,0,0,1-5.519,6.109c2.076-4.679,4.156-10.454,4.719-15.544v-.006a18.277,18.277,0,0,0-.234-6.144l4.439,2.181-1.355,2.626a2.87,2.87,0,0,0,.525,3.359l.854.852a.676.676,0,0,1,.168.691,10.949,10.949,0,0,1-.778,1.752,1.1,1.1,0,1,0,1.933,1.044,13.113,13.113,0,0,0,.933-2.111,2.862,2.862,0,0,0-.7-2.931l-.854-.852a.681.681,0,0,1-.124-.8c1.429-2.775,1.38-2.666,1.438-2.8l5.859,1.855a6.964,6.964,0,0,1,4.88,6.664v2.27a35.029,35.029,0,0,1-21.2,10.49Z" transform="translate(1012 303)"/>
    </g>
  </g>
</svg>
